<svg width="41" height="31" viewBox="0 0 41 31" fill="none" xmlns="http://www.w3.org/2000/svg">
<path d="M40.1459 10.0605C40.4584 9.82617 40.9272 10.0605 40.9272 10.4512V26.3887C40.9272 28.498 39.2084 30.1387 37.1772 30.1387H4.67719C2.56781 30.1387 0.927185 28.498 0.927185 26.3887V10.4512C0.927185 10.0605 1.31781 9.82617 1.63031 10.0605C3.42719 11.4668 5.69281 13.1855 13.6616 18.9668C15.3022 20.1387 18.1147 22.7168 20.9272 22.7168C23.6616 22.7168 26.5522 20.1387 28.1147 18.9668C36.0834 13.1855 38.3491 11.4668 40.1459 10.0605ZM20.9272 20.1387C19.0522 20.2168 16.4741 17.873 15.1459 16.9355C4.75531 9.43555 3.97406 8.73242 1.63031 6.85742C1.16156 6.54492 0.927185 5.99805 0.927185 5.37305V3.88867C0.927185 1.85742 2.56781 0.138672 4.67719 0.138672H37.1772C39.2084 0.138672 40.9272 1.85742 40.9272 3.88867V5.37305C40.9272 5.99805 40.6147 6.54492 40.1459 6.85742C37.8022 8.73242 37.0209 9.43555 26.6303 16.9355C25.3022 17.873 22.7241 20.2168 20.9272 20.1387Z" fill="#AAAAAA"/>
</svg>
