<svg width="32" height="32" viewBox="0 0 32 32" fill="none" xmlns="http://www.w3.org/2000/svg">
<path d="M27.1534 2.0166H5.84094C5.07016 2.0166 4.33094 2.32279 3.78591 2.86782C3.24089 3.41285 2.93469 4.15207 2.93469 4.92285L2.93469 26.2354C2.93469 27.0061 3.24089 27.7454 3.78591 28.2904C4.33094 28.8354 5.07016 29.1416 5.84094 29.1416H14.151V19.9197H10.3365V15.5791H14.151V12.2708C14.151 8.50783 16.3912 6.42926 19.8224 6.42926C21.4657 6.42926 23.184 6.7223 23.184 6.7223V10.4157H21.2907C19.4252 10.4157 18.8434 11.5733 18.8434 12.7606V15.5791H23.0078L22.3418 19.9197H18.8434V29.1416H27.1534C27.9242 29.1416 28.6634 28.8354 29.2085 28.2904C29.7535 27.7454 30.0597 27.0061 30.0597 26.2354V4.92285C30.0597 4.15207 29.7535 3.41285 29.2085 2.86782C28.6634 2.32279 27.9242 2.0166 27.1534 2.0166Z" fill="white"/>
</svg>
