<svg width="32" height="32" viewBox="0 0 32 32" fill="none" xmlns="http://www.w3.org/2000/svg">
<path d="M16.4972 12.3495C15.8585 12.3498 15.2342 12.5394 14.7033 12.8944C14.1723 13.2494 13.7586 13.7539 13.5143 14.344C13.2701 14.9342 13.2063 15.5835 13.331 16.2099C13.4558 16.8363 13.7635 17.4116 14.2152 17.8632C14.6669 18.3147 15.2423 18.6222 15.8688 18.7467C16.4952 18.8712 17.1445 18.8072 17.7346 18.5627C18.3246 18.3182 18.829 17.9043 19.1838 17.3732C19.5386 16.8422 19.728 16.2178 19.728 15.5791C19.7273 14.7226 19.3867 13.9013 18.7809 13.2957C18.1751 12.6902 17.3537 12.3499 16.4972 12.3495ZM24.048 9.86711C23.8836 9.45045 23.6353 9.07202 23.3186 8.75529C23.0019 8.43856 22.6234 8.19029 22.2068 8.02588C20.9353 7.52395 17.9079 7.63656 16.4972 7.63656C15.0865 7.63656 12.0621 7.51971 10.787 8.02588C10.3704 8.19029 9.99193 8.43856 9.6752 8.75529C9.35847 9.07202 9.1102 9.45045 8.94579 9.86711C8.44446 11.1386 8.55647 14.169 8.55647 15.5785C8.55647 16.988 8.44446 20.0148 8.94821 21.2905C9.11262 21.7071 9.36089 22.0856 9.67762 22.4023C9.99435 22.719 10.3728 22.9673 10.7894 23.1317C12.0609 23.6337 15.0883 23.521 16.4996 23.521C17.911 23.521 20.9341 23.6379 22.2092 23.1317C22.6258 22.9673 23.0043 22.719 23.321 22.4023C23.6377 22.0856 23.886 21.7071 24.0504 21.2905C24.556 20.019 24.4397 16.9886 24.4397 15.5791C24.4397 14.1696 24.556 11.1434 24.0504 9.86771L24.048 9.86711ZM16.4972 20.5439C15.5152 20.5439 14.5553 20.2528 13.7389 19.7072C12.9224 19.1617 12.2861 18.3863 11.9103 17.4791C11.5345 16.5719 11.4362 15.5736 11.6277 14.6105C11.8193 13.6474 12.2922 12.7628 12.9865 12.0684C13.6809 11.3741 14.5655 10.9012 15.5286 10.7097C16.4917 10.5181 17.4899 10.6164 18.3972 10.9922C19.3044 11.368 20.0798 12.0043 20.6253 12.8208C21.1709 13.6372 21.462 14.5971 21.462 15.5791C21.4628 16.2313 21.335 16.8773 21.0857 17.48C20.8365 18.0827 20.4708 18.6304 20.0096 19.0916C19.5485 19.5527 19.0008 19.9184 18.3981 20.1676C17.7954 20.4169 17.1494 20.5447 16.4972 20.5439ZM21.6667 11.5648C21.4375 11.565 21.2133 11.4971 21.0227 11.3698C20.832 11.2426 20.6834 11.0616 20.5956 10.8499C20.5078 10.6381 20.4848 10.4051 20.5294 10.1803C20.5741 9.95543 20.6844 9.74888 20.8464 9.58675C21.0085 9.42462 21.215 9.31419 21.4398 9.26942C21.6646 9.22466 21.8976 9.24757 22.1094 9.33527C22.3212 9.42296 22.5022 9.57149 22.6296 9.76208C22.757 9.95267 22.8249 10.1767 22.8249 10.406C22.8256 10.5582 22.7962 10.7091 22.7384 10.8499C22.6806 10.9907 22.5955 11.1187 22.4882 11.2266C22.3808 11.3345 22.2531 11.4201 22.1126 11.4786C21.972 11.5371 21.8213 11.5672 21.6691 11.5673L21.6667 11.5648ZM27.1534 2.0166H5.84094C5.07016 2.0166 4.33094 2.32279 3.78591 2.86782C3.24089 3.41285 2.93469 4.15207 2.93469 4.92285L2.93469 26.2354C2.93469 27.0061 3.24089 27.7454 3.78591 28.2904C4.33094 28.8354 5.07016 29.1416 5.84094 29.1416H27.1534C27.9242 29.1416 28.6634 28.8354 29.2085 28.2904C29.7535 27.7454 30.0597 27.0061 30.0597 26.2354V4.92285C30.0597 4.15207 29.7535 3.41285 29.2085 2.86782C28.6634 2.32279 27.9242 2.0166 27.1534 2.0166ZM26.1169 19.5752C26.0388 21.127 25.6846 22.502 24.5517 23.6318C23.4189 24.7616 22.0451 25.1231 20.4951 25.197C18.8961 25.2872 14.102 25.2872 12.5029 25.197C10.9511 25.1189 9.58092 24.7641 8.44627 23.6318C7.31163 22.4996 6.955 21.124 6.88114 19.5752C6.79092 17.9755 6.79092 13.1808 6.88114 11.583C6.95924 10.0312 7.3092 8.65617 8.44627 7.52637C9.58334 6.39656 10.9572 6.03934 12.5029 5.96547C14.102 5.87525 18.8961 5.87525 20.4951 5.96547C22.0469 6.04357 23.4213 6.39838 24.5517 7.53061C25.6822 8.66283 26.043 10.0385 26.1169 11.5903C26.2071 13.1839 26.2071 17.9743 26.1169 19.5752Z" fill="white"/>
</svg>
