<svg width="31" height="41" viewBox="0 0 31 41" fill="none" xmlns="http://www.w3.org/2000/svg">
<path d="M14.3247 39.3574C2.91846 22.9512 0.887207 21.2324 0.887207 15.1387C0.887207 6.85742 7.52783 0.138672 15.8872 0.138672C24.1685 0.138672 30.8872 6.85742 30.8872 15.1387C30.8872 21.2324 28.7778 22.9512 17.3716 39.3574C16.6685 40.4512 15.0278 40.4512 14.3247 39.3574ZM15.8872 21.3887C19.3247 21.3887 22.1372 18.6543 22.1372 15.1387C22.1372 11.7012 19.3247 8.88867 15.8872 8.88867C12.3716 8.88867 9.63721 11.7012 9.63721 15.1387C9.63721 18.6543 12.3716 21.3887 15.8872 21.3887Z" fill="#AAAAAA"/>
</svg>
