<svg width="131" height="52" viewBox="0 0 131 52" fill="none" xmlns="http://www.w3.org/2000/svg">
<path d="M28.0433 24.2624V7.48853H36.2386C38.3473 7.48853 39.9329 7.8879 40.9956 8.68666C42.0583 9.48541 42.5893 10.5398 42.5886 11.8497C42.5886 12.729 42.373 13.492 41.9417 14.1386C41.5016 14.7931 40.8874 15.3117 40.1684 15.6358C39.4182 15.9879 38.5556 16.1636 37.5805 16.163L38.0357 15.1805C39.0901 15.1805 40.0246 15.3524 40.8394 15.6962C41.6105 16.0046 42.2733 16.5337 42.7449 17.2173C43.2005 17.8883 43.428 18.711 43.4273 19.6855C43.4273 21.1233 42.8602 22.2457 41.726 23.0527C40.5918 23.8598 38.9224 24.263 36.7178 24.2624H28.0433ZM31.9013 21.3389H36.4303C37.4367 21.3389 38.1997 21.1753 38.7192 20.8482C39.2387 20.521 39.4981 19.9976 39.4975 19.2781C39.4975 18.5752 39.238 18.0522 38.7192 17.7091C38.2003 17.3659 37.4373 17.194 36.4303 17.1934H31.6138V14.3658H35.7593C36.7018 14.3658 37.4249 14.2022 37.9284 13.875C38.4319 13.5479 38.6834 13.0485 38.6827 12.3769C38.6827 11.7226 38.4313 11.2315 37.9284 10.9037C37.4255 10.5759 36.7025 10.412 35.7593 10.412H31.9013V21.3389Z" fill="white"/>
<path d="M46.3748 24.2624V7.48853H53.6354C55.1371 7.48853 56.4311 7.73231 57.5174 8.21986C58.6037 8.70742 59.4424 9.40617 60.0335 10.3161C60.6245 11.2267 60.9201 12.313 60.9201 13.575C60.9201 14.8211 60.6245 15.8956 60.0335 16.7985C59.4424 17.7014 58.6037 18.3922 57.5174 18.8708C56.4311 19.35 55.1371 19.5896 53.6354 19.5896H48.5314L50.2567 17.8883V24.2624H46.3748ZM50.2567 18.3196L48.5314 16.4985H53.4198C54.6179 16.4985 55.5125 16.239 56.1036 15.7202C56.6947 15.2013 56.9902 14.4862 56.9902 13.575C56.9902 12.6491 56.6947 11.9302 56.1036 11.4184C55.5125 10.9066 54.6179 10.651 53.4198 10.6516H48.5314L50.2567 8.80647V18.3196ZM57.0381 24.2624L52.8447 18.1759H56.9902L61.2316 24.2624H57.0381Z" fill="white"/>
<path d="M61.7827 24.2624L69.2591 7.48853H73.0931L80.5934 24.2624H76.5197L70.3853 9.45346H71.9189L65.7605 24.2624H61.7827ZM65.5209 20.668L66.5513 17.7206H75.1778L76.2322 20.668H65.5209Z" fill="white"/>
<path d="M87.854 24.5499C86.5489 24.5552 85.2497 24.3738 83.996 24.0112C82.7653 23.6521 81.7748 23.1846 81.0247 22.6089L82.3426 19.6855C83.127 20.2299 83.9883 20.6541 84.898 20.944C85.8595 21.268 86.8672 21.4337 87.8818 21.4347C88.6486 21.4347 89.2675 21.359 89.7384 21.2076C90.2094 21.0561 90.557 20.8443 90.7813 20.5721C91.0012 20.3107 91.1202 19.9791 91.1168 19.6375C91.1229 19.4303 91.0781 19.2247 90.9862 19.0388C90.8943 18.8529 90.7581 18.6925 90.5896 18.5717C90.1685 18.2751 89.6978 18.056 89.1997 17.9247C88.6246 17.7573 87.9895 17.5975 87.2942 17.4454C86.599 17.2933 85.9041 17.1055 85.2095 16.8818C84.5426 16.6711 83.9032 16.3815 83.3049 16.0192C82.7345 15.6729 82.254 15.1966 81.9026 14.6293C81.5435 14.0542 81.364 13.3194 81.364 12.4248C81.356 11.4923 81.627 10.5786 82.1423 9.80135C82.6618 9.0109 83.4446 8.37989 84.4906 7.90831C85.5367 7.43672 86.8508 7.20093 88.4329 7.20093C89.4824 7.20069 90.5282 7.32554 91.5481 7.57283C92.5053 7.79414 93.4199 8.17035 94.2559 8.68661L93.0577 11.634C92.3194 11.2061 91.5305 10.8722 90.7094 10.64C89.9607 10.429 89.1869 10.32 88.409 10.3161C87.6575 10.3161 87.0425 10.4039 86.5639 10.5797C86.0852 10.7554 85.7418 10.9832 85.5335 11.2631C85.3255 11.5432 85.2159 11.8842 85.2219 12.2331C85.2179 12.4368 85.2638 12.6383 85.3557 12.8201C85.4476 13.0019 85.5827 13.1584 85.7491 13.2759C86.1691 13.5717 86.6404 13.7869 87.139 13.9105C87.7141 14.0709 88.3489 14.2306 89.0435 14.3897C89.7381 14.5488 90.433 14.7325 91.1283 14.9409C91.7968 15.1373 92.4373 15.4192 93.0338 15.7795C93.6037 16.1262 94.0838 16.6023 94.4351 17.1694C94.7949 17.7445 94.9747 18.4713 94.9747 19.35C94.9809 20.273 94.705 21.176 94.184 21.9379C93.6568 22.7214 92.8699 23.3524 91.8232 23.831C90.7765 24.3096 89.4534 24.5492 87.854 24.5499Z" fill="white"/>
<path d="M101.512 24.2624H97.6299V7.48853H101.512V24.2624ZM109.419 17.3851H101.224V14.1022H109.419V17.3851ZM109.132 7.48853H113.014V24.2624H109.132V7.48853Z" fill="white"/>
<path d="M42.2656 36.3404C42.0049 37.5787 41.3857 38.7194 40.5058 39.7296C39.6911 40.6095 38.6847 41.3265 37.475 41.9457C35.6225 42.832 33.5974 43.2993 31.5438 43.3144C31.1527 43.3144 30.7617 43.2818 30.4032 43.2493C29.1322 43.1189 28.0242 42.7604 27.2401 42.2064C26.2624 41.5546 25.7736 40.6095 25.7736 39.5015C25.771 39.3724 25.7945 39.2441 25.8427 39.1243C25.8909 39.0045 25.9628 38.8957 26.0541 38.8044C26.1455 38.7131 26.2543 38.6411 26.3741 38.5929C26.4939 38.5447 26.6222 38.5212 26.7513 38.5238C27.0103 38.5246 27.2586 38.6278 27.4418 38.811C27.6249 38.9942 27.7282 39.2424 27.729 39.5015C27.729 40.9028 29.9124 41.2268 30.5968 41.3227C32.5196 41.5144 34.7682 41.0945 36.5932 40.182C38.0597 39.4651 39.8847 38.1615 40.341 35.9129C40.44 35.4915 40.429 35.0518 40.3092 34.6358C40.1893 34.2199 39.9646 33.8418 39.6566 33.5377C38.3204 32.2993 35.6481 32.0999 32.1937 32.9511L31.6051 33.0814C31.359 33.1416 31.0992 33.1039 30.8803 32.9762C30.6614 32.8486 30.5007 32.6409 30.4319 32.3971C30.3946 32.273 30.3828 32.1426 30.3973 32.0138C30.4118 31.885 30.4522 31.7605 30.5162 31.6478C30.5802 31.5351 30.6663 31.4365 30.7695 31.358C30.8726 31.2796 30.9906 31.2228 31.1163 31.1913L31.7029 31.0283C37.5038 29.464 40.0783 26.4658 39.5895 24.2172C39.4936 23.6958 39.1984 23.2721 38.677 22.8484C38.123 22.3922 37.3408 22.0337 36.3632 21.7404C32.7784 20.6324 26.5212 20.6324 20.0686 21.773C13.6811 22.881 8.43809 24.8038 6.38497 26.8243C5.34212 27.8672 5.50507 28.519 5.57024 28.7471C5.60758 28.8712 5.61937 29.0016 5.60489 29.1304C5.5904 29.2591 5.54996 29.3837 5.48598 29.4964C5.42201 29.6091 5.33585 29.7076 5.2327 29.7861C5.12956 29.8646 5.01157 29.9213 4.88587 29.9529C4.39703 30.1158 3.84302 29.7899 3.68007 29.2685C3.45195 28.356 3.45195 26.9547 5.01623 25.4556C6.25462 24.2172 8.30773 23.1092 11.0452 22.0663C13.5546 21.1538 16.5528 20.3717 19.7465 19.8502C22.8222 19.2847 25.9401 18.9795 29.067 18.9377C32.2301 18.9377 34.9005 19.231 36.9536 19.8502C38.1594 20.2413 39.1697 20.7301 39.9192 21.3168C40.7665 22.0337 41.3205 22.8504 41.5161 23.8261C41.7078 24.7386 41.6119 25.6473 41.2554 26.5962C40.8969 27.5087 40.2777 28.3886 39.4342 29.2033C38.9454 29.7248 38.3262 30.181 37.6744 30.6047C39.0431 30.8328 40.1512 31.3542 40.9985 32.1383C42.1353 33.2118 42.5915 34.7435 42.2656 36.3404ZM28.0242 24.8038C27.959 24.9342 23.3275 36.9596 23.3275 42.4019C23.3267 42.661 23.2235 42.9092 23.0403 43.0924C22.8571 43.2756 22.6089 43.3789 22.3498 43.3796C22.0925 43.3733 21.8475 43.2683 21.6655 43.0863C21.4835 42.9043 21.3785 42.6592 21.3722 42.4019C21.3722 36.5685 25.9998 24.6083 26.1953 24.1194C26.2388 23.9964 26.3065 23.8833 26.3943 23.7868C26.4822 23.6904 26.5885 23.6125 26.707 23.5578C26.8255 23.5032 26.9537 23.4728 27.0841 23.4685C27.2146 23.4642 27.3445 23.4861 27.4663 23.5328C27.7056 23.6314 27.8974 23.8189 28.0014 24.0559C28.1054 24.2929 28.1136 24.5609 28.0242 24.8038Z" fill="#F3C331"/>
<path d="M52.4048 42.239C51.6878 41.2287 51.5249 39.5673 51.9159 37.2548C52.0789 36.0816 52.4048 34.7128 52.861 33.1811C52.5663 33.3418 52.2615 33.4834 51.9485 33.6048C50.5472 34.1914 49.2436 34.4195 48.0378 34.2566C47.942 34.5499 47.8461 34.8432 47.7119 35.1365C46.832 37.157 45.7566 38.6887 45.6914 38.7539C45.622 38.8609 45.5311 38.9524 45.4245 39.0225C45.3179 39.0925 45.1979 39.1397 45.0721 39.161C44.9463 39.1823 44.8174 39.1772 44.6937 39.146C44.57 39.1149 44.4541 39.0584 44.3533 38.9801C44.246 38.9072 44.1545 38.8133 44.0845 38.7041C44.0145 38.5949 43.9675 38.4725 43.9461 38.3446C43.9248 38.2166 43.9297 38.0856 43.9604 37.9596C43.9912 37.8336 44.0473 37.7151 44.1252 37.6113C44.1252 37.5788 45.1355 36.1448 45.9176 34.3524L46.2109 33.6355C45.8755 33.4369 45.5591 33.2078 45.2658 32.9511C44.5814 32.3319 44.0926 31.6149 43.8645 30.8002C43.6631 30.1068 43.6744 29.3688 43.8971 28.6819C44.2555 27.6716 45.0377 26.9566 45.9502 26.8608C46.8301 26.7956 47.6122 27.2844 48.1337 28.2295C48.6551 29.2072 48.8506 30.413 48.6877 31.7817L48.5918 32.3357C49.374 32.4009 50.2213 32.2054 51.199 31.8143C52.2017 31.3724 53.1425 30.8018 53.9978 30.1168C54.1616 29.9735 54.3685 29.8889 54.5857 29.8762C54.803 29.8636 55.0183 29.9237 55.1976 30.047C55.377 30.1703 55.5101 30.3498 55.5761 30.5571C55.6421 30.7645 55.6372 30.988 55.5621 31.1922C53.0201 38.5248 53.6393 40.5779 53.9978 41.0993C54.1281 41.2623 54.2911 41.4252 54.7799 41.4252C55.5621 41.4252 56.7027 40.5453 57.9085 39.0462C58.568 38.2329 59.1671 37.3725 59.7009 36.4717C59.7625 36.3578 59.846 36.2573 59.9467 36.1759C60.0474 36.0945 60.1632 36.0338 60.2874 35.9975C60.4117 35.9611 60.5419 35.9497 60.6705 35.964C60.7992 35.9783 60.9238 36.0179 61.0371 36.0806C61.4933 36.3413 61.6888 36.9605 61.3955 37.4168C60.823 38.4244 60.169 39.3835 59.4402 40.2846C58.8421 41.0393 58.1647 41.7277 57.4197 42.3377C56.5072 43.0221 55.6273 43.3806 54.7799 43.3806C53.509 43.3796 52.7882 42.7604 52.4048 42.239ZM45.7566 29.2992C45.6607 29.5599 45.4633 30.505 46.5713 31.5152L46.7342 31.6111C46.8301 30.7312 46.7994 29.8513 46.4084 29.1343C46.3425 29.0104 46.2541 28.8999 46.1476 28.8084C46.0786 28.8123 45.8869 28.9426 45.7527 29.3011L45.7566 29.2992Z" fill="#F3C331"/>
<path d="M60.0593 42.1086C59.4401 41.3917 59.1143 40.3833 59.1143 39.2082C59.1143 37.7704 59.6357 36.0796 60.483 34.6457C60.8434 34.0004 61.3182 33.4262 61.8843 32.9511C62.2754 32.6252 62.6991 32.3645 63.1227 32.2667C63.1789 32.1055 63.2556 31.9521 63.3508 31.8105C64.1004 30.5721 65.1433 29.8877 66.349 29.8877C67.4245 29.8877 68.3044 30.5069 68.891 31.613C69.3147 32.4929 69.5418 33.6335 69.5418 34.9045C69.5483 36.2277 69.3168 37.5413 68.8584 38.7826C69.7238 38.5371 70.5476 38.1637 71.3026 37.6746C72.3455 36.9902 72.9647 36.3058 72.9647 36.2733C73.1382 36.0846 73.3791 35.9719 73.6352 35.9597C73.8912 35.9475 74.1418 36.0367 74.3324 36.2081C74.4311 36.29 74.5122 36.391 74.5707 36.5051C74.6292 36.6192 74.664 36.744 74.673 36.872C74.6819 36.9999 74.6649 37.1283 74.6228 37.2494C74.5808 37.3706 74.5146 37.482 74.4283 37.5768C74.2979 37.7072 71.6582 40.6728 67.7485 40.9316C67.2981 41.551 66.7474 42.0907 66.119 42.5285C65.253 43.0823 64.2465 43.3763 63.2186 43.3758C61.5259 43.3796 60.552 42.6952 60.0593 42.1086ZM62.145 35.656C61.4933 36.764 61.0696 38.1328 61.0696 39.2082C61.0696 39.697 61.1655 40.3814 61.5259 40.8377C61.8843 41.2287 62.4384 41.4243 63.2205 41.4243C64.0087 41.4339 64.7735 41.1558 65.3714 40.6421C64.6218 40.3488 64.0026 39.8274 63.4812 39.143C62.7968 38.1979 62.4058 36.8944 62.4058 35.493V35.2323L62.145 35.656ZM64.3611 35.493C64.3611 36.4707 64.6218 37.3832 65.0781 38.0024C65.4691 38.5564 65.9906 38.8497 66.6749 38.9801C67.2615 37.8069 67.5874 36.3404 67.5874 34.9064C67.5874 33.1811 67.066 31.8392 66.349 31.8392C65.7299 31.8392 65.1758 32.3932 64.8154 33.277C64.7752 33.4127 64.7206 33.5438 64.6525 33.668C64.4635 34.2581 64.3652 34.8735 64.3611 35.493Z" fill="#F3C331"/>
<path d="M90.0078 35.1671C89.5741 36.728 88.8799 38.2044 87.9546 39.5341C87.2806 40.524 86.4809 41.4223 85.5756 42.2064C84.6306 42.9885 83.7181 43.3796 82.9033 43.3796C81.6324 43.3796 80.9154 42.7604 80.5569 42.239C80.231 41.7827 80.0355 41.2287 79.9051 40.5443C78.5364 42.4345 77.135 43.3796 75.7337 43.3796C74.4627 43.3796 73.7458 42.7604 73.3873 42.239C72.6703 41.1961 72.4748 39.5667 72.8659 37.2548C73.1592 35.4624 73.7784 33.2137 74.687 30.5452C74.7267 30.4222 74.7906 30.3083 74.8749 30.2102C74.9592 30.1122 75.0622 30.0319 75.1778 29.9742C75.2935 29.9164 75.4196 29.8823 75.5486 29.8739C75.6776 29.8655 75.807 29.8829 75.9292 29.9251C76.1765 30.0161 76.3791 30.1991 76.4945 30.436C76.6099 30.6729 76.6292 30.9452 76.5484 31.1961C73.9739 38.5286 74.5931 40.5491 74.9842 41.1032C75.08 41.2661 75.2775 41.429 75.7337 41.429C76.4833 41.429 77.5261 40.5817 78.569 39.1152C79.1265 38.2974 79.6169 37.4357 80.0355 36.5388L80.1984 36.3106C80.5243 34.6812 81.0783 32.7584 81.8605 30.5423C81.9005 30.42 81.9645 30.3068 82.0486 30.2094C82.1327 30.112 82.2354 30.0322 82.3506 29.9748C82.4658 29.9174 82.5913 29.8834 82.7197 29.8749C82.8482 29.8663 82.9771 29.8834 83.0989 29.9251C83.3429 30.0188 83.5408 30.204 83.6503 30.4414C83.7599 30.6788 83.7725 30.9495 83.6855 31.1961C81.1435 38.5286 81.7627 40.5491 82.1212 41.1032C82.2515 41.2661 82.4145 41.429 82.9033 41.429C83.5877 41.429 85.0216 40.3862 86.3252 38.4634C87.6939 36.4755 88.9649 33.3834 88.1176 31.2286C88.0247 30.9865 88.0307 30.7175 88.1343 30.4797C88.238 30.2419 88.4309 30.0544 88.6716 29.9577C88.7911 29.9075 88.9195 29.8821 89.0491 29.883C89.1787 29.8839 89.3068 29.911 89.4256 29.9628C89.5444 30.0146 89.6515 30.0899 89.7403 30.1843C89.8292 30.2786 89.898 30.39 89.9426 30.5117C90.464 31.8421 90.464 33.4073 90.0078 35.1671Z" fill="#F3C331"/>
<path d="M90.0078 43.3145C89.7852 43.2159 89.6079 43.037 89.5113 42.8136C89.4146 42.5901 89.4058 42.3384 89.4864 42.1087C89.4864 42.0761 91.2788 36.6337 93.4297 30.5721C93.5234 30.3281 93.7086 30.1302 93.946 30.0206C94.1834 29.9111 94.4541 29.8985 94.7007 29.9855C95.1895 30.1772 95.4828 30.7351 95.2873 31.2239C94.8636 32.4297 94.44 33.5703 94.0815 34.6745C94.7267 33.7563 95.4231 32.875 96.1672 32.0348C97.4707 30.597 98.5462 29.9165 99.5219 29.9165C100.304 29.9165 100.728 30.275 100.96 30.5683C101.709 31.546 101.318 33.0777 100.699 35.6484C100.569 36.072 100.471 36.4957 100.373 36.9519C100.047 38.2229 99.8517 39.168 99.7539 39.9501C99.6581 40.8952 99.7865 41.1885 99.8498 41.2863C99.9456 41.3821 100.241 41.4166 100.404 41.4166C101.153 41.4166 102.327 40.5367 103.532 39.0376C104.575 37.7667 105.325 36.4631 105.325 36.4305C105.387 36.3152 105.471 36.2136 105.573 36.1316C105.676 36.0497 105.793 35.989 105.919 35.9532C106.045 35.9175 106.177 35.9073 106.307 35.9234C106.437 35.9395 106.562 35.9815 106.675 36.047C106.789 36.1124 106.888 36.1999 106.967 36.3043C107.046 36.4087 107.103 36.5279 107.135 36.6548C107.167 36.7818 107.173 36.9138 107.154 37.0432C107.134 37.1726 107.088 37.2967 107.019 37.4082C106.447 38.4158 105.793 39.3749 105.064 40.276C104.38 41.1233 103.695 41.8096 103.043 42.2966C102.131 43.0135 101.222 43.372 100.404 43.372C99.4913 43.372 98.7743 43.0787 98.3181 42.4921C97.3078 41.2211 97.8618 39.0415 98.4484 36.4957L98.8069 35.1595C99.035 34.2144 99.2306 33.4342 99.3283 32.7805C99.3932 32.4917 99.4254 32.1966 99.4242 31.9006C99.0657 31.9965 97.6989 32.6827 94.6988 37.2126C92.8086 40.0153 91.2769 42.8506 91.2769 42.8832C91.1885 43.0393 91.0608 43.1696 90.9064 43.2611C90.752 43.3526 90.5764 43.4021 90.397 43.4046C90.262 43.4052 90.1288 43.3744 90.0078 43.3145Z" fill="#F3C331"/>
<path d="M105.781 42.2391C105.031 41.1962 104.869 39.5668 105.26 37.2549C105.52 35.4625 106.139 33.2138 107.081 30.5453C107.117 30.4182 107.18 30.2998 107.264 30.1977C107.348 30.0955 107.452 30.0117 107.57 29.9514C107.688 29.8911 107.817 29.8555 107.949 29.847C108.081 29.8384 108.214 29.857 108.338 29.9016C108.463 29.9462 108.577 30.0159 108.674 30.1063C108.77 30.1968 108.848 30.3061 108.9 30.4275C108.953 30.5488 108.981 30.6798 108.981 30.8121C108.981 30.9445 108.954 31.0755 108.902 31.1971C106.36 38.5297 106.979 40.5828 107.338 41.1042C107.468 41.2672 107.664 41.4301 108.12 41.4301C108.902 41.4301 110.043 40.5828 111.248 39.0837C111.904 38.2562 112.503 37.3852 113.041 36.4766C113.1 36.3578 113.182 36.2523 113.283 36.1662C113.384 36.08 113.501 36.0152 113.627 35.9755C113.754 35.9358 113.887 35.922 114.019 35.935C114.151 35.9481 114.279 35.9876 114.395 36.0513C114.511 36.115 114.614 36.2015 114.696 36.3057C114.778 36.4099 114.838 36.5295 114.872 36.6575C114.907 36.7855 114.916 36.9191 114.897 37.0504C114.879 37.1818 114.834 37.308 114.766 37.4217C114.179 38.4233 113.519 39.3799 112.791 40.2838C112.192 41.0385 111.515 41.7268 110.77 42.3369C109.858 43.0212 108.978 43.3797 108.13 43.3797C106.856 43.3797 106.139 42.7605 105.781 42.2391ZM108.616 27.8999C108.095 27.9325 107.769 27.5088 107.932 26.9548C108.095 26.4334 108.681 25.9445 109.235 25.9445C109.789 25.9119 110.083 26.303 109.92 26.857C109.825 27.1372 109.652 27.3844 109.421 27.5692C109.19 27.754 108.91 27.8688 108.616 27.8999Z" fill="#F3C331"/>
<path d="M113.57 41.5872C113.016 40.9028 112.397 39.6318 112.788 37.6113C113.191 35.5721 114.175 33.6932 115.623 32.2015C116.894 30.8979 118.458 30.018 119.729 29.8877C120.902 29.7573 121.815 30.2462 122.239 31.2238C122.727 32.4296 122.334 34.222 121.196 35.9205C120.448 37.0113 119.469 37.9238 118.328 38.5928C117.243 39.2573 116.013 39.6487 114.743 39.7334C115.297 41.0044 116.666 41.3303 117.937 41.3303C119.794 41.3303 121.554 40.5156 123.118 38.9513C123.861 38.2101 124.507 37.3779 125.041 36.4745C125.1 36.3582 125.182 36.2547 125.281 36.1702C125.381 36.0857 125.496 36.0219 125.62 35.9825C125.745 35.943 125.876 35.9288 126.006 35.9405C126.136 35.9523 126.262 35.9898 126.377 36.0509C126.834 36.3116 127.029 36.8982 126.768 37.3544C126.172 38.4318 125.426 39.4192 124.552 40.2875C122.597 42.2428 120.316 43.2857 117.939 43.2857C116.014 43.2818 114.482 42.6952 113.57 41.5872ZM119.925 31.8421C119.306 31.9073 118.165 32.3961 117.024 33.5674C115.894 34.734 115.105 36.1879 114.743 37.7714C116.666 37.5797 118.426 36.5004 119.566 34.8058C120.381 33.6 120.609 32.4268 120.414 31.9705C120.414 31.9053 120.348 31.8076 120.088 31.8076C120.031 31.806 119.976 31.8178 119.925 31.8421Z" fill="#F3C331"/>
</svg>
