<svg width="36" height="36" viewBox="0 0 36 36" fill="none" xmlns="http://www.w3.org/2000/svg">
<path d="M31.6572 0.638672C33.6885 0.638672 35.4072 2.35742 35.4072 4.38867V31.8887C35.4072 33.998 33.6885 35.6387 31.6572 35.6387H4.15723C2.04785 35.6387 0.407227 33.998 0.407227 31.8887V4.38867C0.407227 2.35742 2.04785 0.638672 4.15723 0.638672H31.6572ZM30.3291 24.7012C30.3291 24.623 30.3291 24.5449 30.4072 24.3887C30.3291 23.9199 30.0947 23.5293 29.626 23.373L24.1572 21.0293C24.0791 20.9512 23.9229 20.9512 23.7666 20.873C23.376 20.9512 23.0635 21.1074 22.8291 21.3418L20.4072 24.3105C16.5791 22.5137 13.5322 19.4668 11.7354 15.6387L14.7041 13.2168C14.9385 12.9824 15.0947 12.6699 15.1729 12.2793C15.0947 12.123 15.0947 11.9668 15.0166 11.8887L12.6729 6.41992C12.5166 5.95117 12.126 5.7168 11.6572 5.63867C11.501 5.7168 11.4229 5.7168 11.3447 5.7168L6.2666 6.88867C5.79785 7.04492 5.40723 7.43555 5.40723 7.98242C5.40723 20.5605 15.5635 30.6387 28.0635 30.6387C28.6104 30.6387 29.0791 30.3262 29.1572 29.7793L30.3291 24.7012Z" fill="#AAAAAA"/>
</svg>
