<svg width="32" height="32" viewBox="0 0 32 32" fill="none" xmlns="http://www.w3.org/2000/svg">
<g clip-path="url(#clip0_61_2128)">
<path d="M28.8106 9.26495C28.8303 9.54032 28.8303 9.81574 28.8303 10.0911C28.8303 18.4902 22.4376 28.1679 10.7535 28.1679C7.1539 28.1679 3.81002 27.1253 0.997192 25.3157C1.50863 25.3747 2.00033 25.3944 2.53145 25.3944C5.50158 25.3944 8.23575 24.3913 10.4191 22.68C7.62599 22.6209 5.28524 20.7916 4.47876 18.2738C4.87219 18.3328 5.26557 18.3722 5.67868 18.3722C6.24909 18.3722 6.81956 18.2935 7.35062 18.1558C4.43946 17.5657 2.25602 15.0086 2.25602 11.9204V11.8418C3.1018 12.3138 4.08539 12.6089 5.12782 12.6482C3.41652 11.5073 2.29538 9.55999 2.29538 7.35694C2.29538 6.17676 2.61004 5.0949 3.16084 4.15074C6.28838 8.00606 10.9895 10.5238 16.2611 10.7992C16.1627 10.3271 16.1037 9.83542 16.1037 9.34366C16.1037 5.84236 18.9362 2.99023 22.4571 2.99023C24.2864 2.99023 25.9387 3.75736 27.0993 4.99658C28.5351 4.72121 29.912 4.19009 31.1316 3.46232C30.6595 4.9376 29.6563 6.17682 28.3385 6.96356C29.617 6.82594 30.8562 6.4718 31.9971 5.9801C31.1317 7.23893 30.0498 8.36008 28.8106 9.26495Z" fill="white"/>
</g>
<defs>
<clipPath id="clip0_61_2128">
<rect width="31" height="31" fill="white" transform="translate(0.997192 0.0791016)"/>
</clipPath>
</defs>
</svg>
